<svg width="512" height="512" viewBox="0 0 512 512" fill="none" xmlns="http://www.w3.org/2000/svg">
<path d="M331 326C342 300 327 288 312 288L164 286C160 286 160 280 165 279L315 277C332 276 352 262 358 244C358 244 368 223 367 220C362.671 199.113 351.578 180.235 335.437 166.289C319.297 152.342 299.009 144.105 277.715 142.853C256.42 141.6 235.307 147.402 217.642 159.36C199.978 171.317 186.748 188.764 180 209C142 184 102 218 111 255C63 258 46 301 51 327C51 328 52 329 54 329H328C329 329 331 328 331 326Z" fill="#F38020"/>
<path d="M381 224C377 224 375 223 374 225L369 246C364 262 372 276 389 277L421 279C425 279 425 285 420 286L387 287C351 291 341 326 341 326C341 328 341 329 343 329H456L459 327C462.4 314.952 462.961 302.279 460.64 289.978C458.318 277.676 453.176 266.08 445.618 256.1C438.061 246.119 428.293 238.027 417.081 232.457C405.869 226.888 393.519 223.993 381 224Z" fill="#FAAE40"/>
</svg>
